<?xml version="1.0" encoding="UTF-8" standalone="no"?><!DOCTYPE svg PUBLIC "-//W3C//DTD SVG 1.1//EN" "http://www.w3.org/Graphics/SVG/1.1/DTD/svg11.dtd"><svg width="100%" height="100%" viewBox="0 0 655 605" version="1.1" xmlns="http://www.w3.org/2000/svg" xmlns:xlink="http://www.w3.org/1999/xlink" xml:space="preserve" xmlns:serif="http://www.serif.com/" style="fill-rule:evenodd;clip-rule:evenodd;stroke-linecap:round;stroke-miterlimit:2;"><path d="M327.058,133.625c51.696,0 99.554,23.367 131.263,62.596l-54.9,14.867l159.287,91.375l91.413,-159.267l-60.471,16.375c-52.854,-98.496 -154.7,-159.571 -266.592,-159.571c-75.396,0 -147.625,27.908 -203.383,78.587c-55.354,50.313 -89.988,118.863 -97.517,193.03l132.938,13.5c8.771,-86.367 80.979,-151.492 167.962,-151.492Z" style="fill:#79ba2b;fill-rule:nonzero;"/><path d="M327.058,471.3c-51.691,-0 -99.55,-23.367 -131.262,-62.6l54.904,-14.867l-159.292,-91.37l-91.408,159.266l60.471,-16.379c52.854,98.496 154.7,159.571 266.587,159.571c75.396,-0 147.625,-27.908 203.384,-78.588c55.358,-50.312 89.987,-118.862 97.52,-193.029l-132.941,-13.5c-8.771,86.367 -80.979,151.496 -167.963,151.496Z" style="fill:#33854e;fill-rule:nonzero;"/><path d="M327.058,66.25c-122.3,-0 -222.896,92.95 -234.991,212.058l67.029,6.809c8.771,-86.367 80.979,-151.492 167.962,-151.492c51.696,0 99.554,23.367 131.263,62.596l-54.9,14.867l159.287,91.375l0.538,-0.942c-0.504,-130.021 -106.046,-235.271 -236.188,-235.271Z" style="fill:#79ba2b;fill-rule:nonzero;"/><path d="M495.021,319.804c-8.771,86.367 -80.979,151.496 -167.963,151.496c-51.691,-0 -99.55,-23.367 -131.262,-62.6l54.904,-14.867l-159.292,-91.37l-0.537,0.937c0.508,130.021 106.046,235.271 236.187,235.271c122.304,-0 222.896,-92.95 234.992,-212.059l-67.029,-6.808Z" style="fill:#33854e;fill-rule:nonzero;"/><path d="M97.262,441.996l10.313,14.383l20.254,-14.521l10.942,15.267l10.933,-7.837l-10.942,-15.267l9.1,-6.521l14.834,20.696l11.45,-8.208l-25.146,-35.08l-51.738,37.088Z" style="fill:#f9fbfc;fill-rule:nonzero;"/><path d="M192.337,483.883c-2.72,3.371 -6.091,3.667 -9.816,0.663l-6.817,-5.496l8.333,-10.333l6.817,5.5c3.725,3.004 3.979,6.571 1.483,9.666Zm-12.779,-37.8l-39.962,49.542l13.775,11.113l14.737,-18.271l1.475,1.187l-4.9,26.209l15.392,12.416l4.417,-28.341c9.191,3.704 17.241,0.916 22.454,-5.55c7.146,-8.855 6.629,-20.871 -5.671,-30.792l-21.717,-17.513Z" style="fill:#f9fbfc;fill-rule:nonzero;"/><path d="M201.425,539.454l15.896,7.779l27.983,-57.175l-15.896,-7.779l-27.983,57.175Z" style="fill:#f9fbfc;fill-rule:nonzero;"/><path d="M296.254,505.642l-39.433,-10.159l-15.884,61.638l39.43,10.162l3.537,-13.725l-22.296,-5.745l2.863,-11.105l19.675,5.067l3.354,-13.025l-19.671,-5.071l2.592,-10.054l22.296,5.746l3.537,-13.729Z" style="fill:#f9fbfc;fill-rule:nonzero;"/><path d="M346.267,506.288l1.283,36.004l-24.833,-35.163l-17.688,0.629l2.267,63.613l17.687,-0.629l-1.266,-35.55l24.816,34.712l17.684,-0.629l-2.263,-63.617l-17.687,0.63Z" style="fill:#f9fbfc;fill-rule:nonzero;"/><path d="M396.562,494.754l-23.562,8.904l22.508,59.542l23.563,-8.904c19.004,-7.183 26.325,-24.333 19.812,-41.563c-6.608,-17.483 -23.316,-25.162 -42.321,-17.979Zm9.976,47.579l-11.559,-30.575l5.746,-2.171c9.542,-3.604 17.617,-0.383 21.35,9.5c3.704,9.796 -0.25,17.467 -9.796,21.076l-5.741,2.17Z" style="fill:#f9fbfc;fill-rule:nonzero;"/><path d="M434.312,477.321l37.742,51.258l30.175,-22.216l-8.033,-10.905l-15.921,11.721l-29.708,-40.354l-14.255,10.496Z" style="fill:#f9fbfc;fill-rule:nonzero;"/><path d="M515.554,463.588l15.825,12.591l11.075,-13.917l-15.825,-12.591l-20.046,-44.563l-12.425,15.613l12.25,24.054l-26.191,-6.529l-12.592,15.825l47.929,9.517Z" style="fill:#f9fbfc;fill-rule:nonzero;"/><path d="M240.221,39.1l-46.6,20.471l32,72.85l46.604,-20.475l-7.129,-16.221l-26.346,11.575l-5.767,-13.125l23.25,-10.212l-6.762,-15.396l-23.25,10.212l-5.221,-11.883l26.35,-11.575l-7.129,-16.221Z" style="fill:#f9fbfc;fill-rule:nonzero;"/><path d="M272.517,69.1c1.533,23.767 18.262,39.425 42.141,37.883c19.934,-1.287 33.384,-13.691 36.163,-31.966l-23.763,1.533c-2.433,6.15 -7.516,9.758 -14.046,10.179c-10.137,0.658 -17.291,-6.8 -18.083,-19.075c-0.787,-12.162 5.35,-20.475 15.488,-21.129c6.529,-0.425 12.033,2.5 15.237,8.287l23.763,-1.533c-5.105,-17.766 -20.038,-28.337 -39.975,-27.05c-23.875,1.542 -38.455,19.221 -36.925,42.871Z" style="fill:#f9fbfc;fill-rule:nonzero;"/><path d="M444.296,92.988c7.966,-22.563 -3.463,-44.434 -24.854,-51.984c-21.288,-7.517 -44.125,2.254 -52.092,24.817c-7.967,22.558 3.637,44.612 24.925,52.125c21.283,7.516 44.054,-2.4 52.021,-24.958Zm-55.659,-19.655c4.171,-11.812 13.184,-17.008 24.042,-13.175c10.746,3.796 14.608,13.538 10.438,25.35c-4.096,11.6 -13.255,16.863 -24.005,13.071c-10.854,-3.833 -14.57,-13.646 -10.475,-25.246Z" style="fill:#f9fbfc;fill-rule:nonzero;"/><path d="M282.617,315.971l-43.721,-12.529c-0,27.37 18.133,51.429 44.441,58.966l43.721,12.534c0,-27.371 -18.129,-51.429 -44.441,-58.971Zm44.441,58.971l43.721,-12.534c26.313,-7.537 44.446,-31.596 44.446,-58.966l-43.721,12.529c-26.312,7.542 -44.446,31.6 -44.446,58.971Zm88.167,-125.167l-43.721,12.529c-26.312,7.542 -44.446,31.6 -44.446,58.971l43.721,-12.533c26.313,-7.538 44.446,-31.596 44.446,-58.967Zm-88.167,-62.504c-27.183,27.183 -27.183,71.254 0,98.437c27.184,-27.183 27.184,-71.254 0,-98.437Zm-43.721,121.471l43.721,12.533c0,-27.371 -18.129,-51.429 -44.441,-58.971l-43.721,-12.529c-0,27.371 18.133,51.429 44.441,58.967Z" style="fill:#0baaa2;fill-rule:nonzero;"/><path d="M327.058,257.171l0,160.479" style="fill:none;stroke:#0baaa2;stroke-width:8.33px;"/></svg>