<?xml version="1.0" encoding="UTF-8" standalone="no"?><!DOCTYPE svg PUBLIC "-//W3C//DTD SVG 1.1//EN" "http://www.w3.org/Graphics/SVG/1.1/DTD/svg11.dtd"><svg width="100%" height="100%" viewBox="0 0 1823 1414" version="1.1" xmlns="http://www.w3.org/2000/svg" xmlns:xlink="http://www.w3.org/1999/xlink" xml:space="preserve" xmlns:serif="http://www.serif.com/" style="fill-rule:evenodd;clip-rule:evenodd;stroke-linejoin:round;stroke-miterlimit:2;"><path d="M304.983,321.043c0,-0 16.563,37 55.992,41.625c27.313,3.204 148.496,-155.084 148.496,-155.084l51.333,-0.587c0,-0 -112.812,200.846 -125.812,217.054c-20.3,25.304 -35.875,43.121 -79.605,42.079c-43.729,-1.042 -74.866,-21.225 -74.866,-21.225l24.462,-123.862Z" style="fill:#454d6d;fill-rule:nonzero;"/><path d="M328.475,669.405c0,0 28.583,266.3 0.583,387.804c-28,121.509 -42.929,248.43 -42.929,248.43c0,-0 -23.954,40.725 -50.091,29.887c-16.109,-20.817 -47.484,-402.542 -66.534,-478.762c-19.05,-76.225 -32.633,-185.517 -32.633,-185.517c-0,-0 114.004,-50.508 191.604,-1.842Z" style="fill:#39435b;fill-rule:nonzero;"/><path d="M273.746,727.301c-0,-0 -17.592,259.975 -77.975,369.071c-60.383,109.092 -137.963,230.892 -137.963,230.892c0,-0 -34.291,17.6 -56.433,-0.017c-9.75,-24.446 75.988,-240.279 60.783,-426.467c-8.245,-101.012 16.475,-210.933 16.475,-210.933c0,-0 133.921,-30.704 195.113,37.454Z" style="fill:#454d6d;fill-rule:nonzero;"/><path d="M286.129,1305.64l41.609,19.279c2.245,1.037 1.912,4.325 -0.496,4.866c-17.85,4 -63.913,13.225 -87.371,7.721c-3.325,-0.783 -5.888,-3.412 -6.804,-6.704l-4.071,-20.5l57.133,-4.662Z" style="fill:#33190a;fill-rule:nonzero;"/><path d="M57.808,1327.26l34.7,30.004c1.871,1.616 0.65,4.679 -1.816,4.537c-18.284,-1.054 -65.209,-4.896 -85.642,-17.116c-2.258,-1.355 -5.058,-2.53 -5.05,-5.163l1.488,-22.296l56.32,10.034Z" style="fill:#33190a;fill-rule:nonzero;"/><path d="M66.788,399.351c-15.475,99.163 -28.221,306.242 -21.096,365.642c-0,-0 198.712,37.821 312.491,-13.184c0,0 -8.204,-284.2 -49.079,-419.979c-9.162,-30.429 -35.479,-52.704 -66.987,-56.837c-5.521,-0.721 -11.563,-1.296 -18.179,-1.671c-76.63,-4.359 -138.809,8.487 -157.15,126.029Z" style="fill:#454d6d;fill-rule:nonzero;"/><path d="M148.5,231.63l17.567,52.783c-0,0 81.471,42.159 81.471,0.338c-0,-8.825 -14.713,-64.737 -14.713,-64.737l-84.325,11.616Z" style="fill:#fbb67c;fill-rule:nonzero;"/><path d="M269.183,85.639c0,-0 13.971,5.241 25.009,40.45c12.187,38.875 1.737,122.812 -53.1,133.245c-54.834,10.438 -83.759,-16.545 -99.567,-43.033c0,0 -19.096,-0.45 -20.562,-20.892c-0.475,-6.65 -0.146,-12.471 5.533,-15.445c-0,-0 -24.042,-55.234 -13.833,-74.917c10.212,-19.684 98.116,-79.467 156.52,-19.408Z" style="fill:#fbb67c;fill-rule:nonzero;"/><path d="M233.6,197.268c0.5,1.479 4.979,2.412 9.921,0.766c4.462,-1.483 7.646,-5.075 6.183,-7.391c-0.604,-0.959 -9.233,-18.117 -12.833,-25.275c-0.421,-0.842 -1.679,-0.571 -1.725,0.366l-1.546,31.534Z" style="fill:#f4815f;fill-rule:nonzero;"/><path d="M276.096,162.168c-0.075,3.116 -1.95,5.6 -4.192,5.546c-2.237,-0.05 -3.996,-2.617 -3.925,-5.734c0.071,-3.112 1.946,-5.596 4.188,-5.546c2.241,0.055 4,2.621 3.929,5.734Z" style="fill:#3c3c3a;fill-rule:nonzero;"/><path d="M206.083,171.943c0.05,3.116 -1.725,5.671 -3.962,5.708c-2.242,0.038 -4.1,-2.458 -4.154,-5.575c-0.054,-3.113 1.721,-5.671 3.962,-5.708c2.242,-0.038 4.1,2.458 4.154,5.575Z" style="fill:#3c3c3a;fill-rule:nonzero;"/><path d="M238.079,224.713c24.838,1.605 21.813,-18.895 21.104,-19.787c-0.704,-0.896 -2.008,-1.054 -2.908,-0.337c-10.575,8.37 -30.95,2.279 -31.446,1.92c-0.912,-0.675 -2.221,-0.458 -2.887,0.467c-0.671,0.925 0.35,16.058 16.137,17.737Z" style="fill:#fff;fill-rule:nonzero;"/><path d="M192.767,194.409c-5.196,0 -9.429,-2.887 -9.571,-6.608c-0.142,-3.846 4.15,-7.125 9.583,-7.329c0.175,-0.008 0.35,-0.008 0.525,-0.008c5.2,-0 9.434,2.883 9.575,6.604c0.142,3.845 -4.15,7.129 -9.583,7.333c-0.175,0.004 -0.354,0.008 -0.529,0.008Z" style="fill:#f8a072;fill-rule:nonzero;"/><path d="M286.079,181.514c-5.191,-0 -9.429,-2.888 -9.571,-6.609c-0.141,-3.846 4.146,-7.125 9.584,-7.329c0.175,-0.008 0.354,-0.013 0.529,-0.013c5.192,0 9.429,2.888 9.571,6.609c0.141,3.846 -4.15,7.129 -9.584,7.329c-0.175,0.008 -0.354,0.013 -0.529,0.013Z" style="fill:#f8a072;fill-rule:nonzero;"/><path d="M190.708,123.276l0.03,-0.617l0.325,0.059l-0.355,0.558Zm106.325,-90.158c-30.491,-14.921 -85.87,-26.221 -131.433,-6.946c-76.508,32.367 -82.392,76.508 -73.567,114.758c8.83,38.254 20.588,56.488 28.842,70.788c8.254,14.3 35.775,24.496 35.775,24.496c0,-0 -17.379,-34.342 -22.221,-49.763c-4.304,-13.708 7.35,-13.842 8.288,-10c9.179,37.608 35.796,34.362 27.491,17.1c-4.566,-9.492 -5.745,-13.092 -5.745,-20.446c-0,-35.416 32.212,-38.675 40.17,-37.862c71.813,7.341 104.48,-2.484 118.421,-33.784c7.113,-15.962 4.009,-53.65 -26.021,-68.341Z" style="fill:#4e280f;fill-rule:nonzero;"/><path d="M124.492,189.143c0.733,8.304 8.062,14.441 16.366,13.708c8.305,-0.737 5.642,-30.813 -2.662,-30.075c-8.304,0.733 -14.442,8.062 -13.704,16.367Z" style="fill:#fbb67c;fill-rule:nonzero;"/><path d="M244.429,267.176c-0.012,-0.046 -0.021,-0.092 -0.033,-0.137l0.033,0.137Z" style="fill:#a5ceda;fill-rule:nonzero;"/><path d="M240.696,267.214c-26.033,-0 -42.958,-5.421 -53.271,-10.7c8.879,3.229 19,5.12 30.558,5.12c6.734,0 13.967,-0.645 21.713,-2.041l0.642,-0c1.504,-0 2.358,-0.009 2.358,-0.009l1.7,7.455c0.012,0.045 0.021,0.091 0.033,0.137c-1.266,0.025 -2.508,0.038 -3.733,0.038Z" style="fill:#ecab76;fill-rule:nonzero;"/><path d="M217.983,261.634c-11.558,0 -21.679,-1.891 -30.558,-5.12c-9.8,-5.017 -13.633,-9.909 -13.633,-9.909l13.354,6.771c11.2,5.675 42.679,6.196 52.55,6.217c-7.746,1.396 -14.979,2.041 -21.713,2.041Z" style="fill:#ecab76;fill-rule:nonzero;"/><path d="M153.379,281.809l163.571,207.196l-69.412,-204.254l-94.159,-2.942Z" style="fill:#fbfbe1;fill-rule:nonzero;"/><path d="M156.692,261.634l-19.913,21.98l82.4,37.429l17.488,-36.63l15.491,13.926l5.75,-24.155l-15.07,-13.987c-0,-0 -10.775,21.896 -42.85,15.604c-31.046,-6.092 -43.296,-14.167 -43.296,-14.167Z" style="fill:#eae7d1;fill-rule:nonzero;"/><path d="M65.971,768.322c-0,-0 162.442,15.137 221.883,3.512c0,0 -67.783,13.146 -223.008,6.65c0.371,-5.2 1.125,-10.162 1.125,-10.162Z" style="fill:#39435b;fill-rule:nonzero;"/><path d="M236.667,284.413l-9.913,28.313l16.329,13.213l4.455,75.145l69.412,87.921l-34.192,-103.6l-31.341,-60.854l0.741,-26.212l-15.491,-13.926Z" style="fill:#ef665d;fill-rule:nonzero;"/><path d="M317.638,368.643l26.15,115.945l-6.105,-2.554l-20.045,-113.391Z" style="fill:#39435b;fill-rule:nonzero;"/><path d="M316.763,485.189l27.712,272.87l-4.962,1.567l-22.376,-256.9l-0.374,-17.537Z" style="fill:#39435b;fill-rule:nonzero;"/><path d="M306.5,555.764c0.488,6.025 3.488,10.708 6.7,10.454c3.213,-0.267 5.421,-5.367 4.938,-11.396c-0.488,-6.029 -3.484,-10.708 -6.696,-10.454c-3.213,0.262 -5.425,5.362 -4.942,11.396Z" style="fill:#39435b;fill-rule:nonzero;"/><path d="M295.679,626.489c1.334,5.9 4.963,10.112 8.109,9.4c3.141,-0.709 4.612,-6.071 3.279,-11.971c-1.334,-5.904 -4.967,-10.113 -8.109,-9.405c-3.145,0.713 -4.612,6.071 -3.279,11.976Z" style="fill:#39435b;fill-rule:nonzero;"/><path d="M308.879,701.593c0.488,6.029 3.484,10.708 6.696,10.45c3.213,-0.259 5.425,-5.359 4.942,-11.392c-0.488,-6.029 -3.488,-10.708 -6.7,-10.45c-3.213,0.258 -5.421,5.358 -4.938,11.392Z" style="fill:#39435b;fill-rule:nonzero;"/><path d="M316.95,489.005l-125.362,-97.441l-11.459,4.145l-43.266,-110.237l-3.821,2.842l43.1,114.295l13.05,-6.9l127.758,93.296Z" style="fill:#39435b;fill-rule:nonzero;"/><path d="M282.167,293.705l1.946,43.046l-7.359,4.25l7.921,4.367l32.275,139.821l-36.1,-136.592l-9.417,-7.679l9.634,-8.592l-3.892,-43.45l4.992,4.829Z" style="fill:#39435b;fill-rule:nonzero;"/><path d="M101.971,422.343c-0,-0 44.216,146.196 99.233,205.487c37.438,40.346 112.304,28.938 112.304,28.938c0,-0 -42.058,10.458 -83.391,0.8c-74.592,-17.421 -128.146,-235.225 -128.146,-235.225Z" style="fill:#39435b;fill-rule:nonzero;"/><path d="M199.921,424.051l59.087,144.392l62.538,10.296l-55.463,-17.721l-66.162,-136.967Z" style="fill:#39435b;fill-rule:nonzero;"/><path d="M994.933,418.564l0,-220.251l-217.22,0c-2.096,-10.654 -2.963,-26.275 3.87,-42.499l-0.029,0.004c11.063,-14.292 17.663,-32.213 17.663,-51.684c-0,-46.687 -37.85,-84.533 -84.538,-84.533c-46.687,0 -84.537,37.846 -84.537,84.533c-0,21.038 7.704,40.267 20.421,55.059c-0,-0 12.687,17.183 5.249,39.12l-221.383,0l0,224.742c-10.55,1.779 -25.146,2.121 -40.3,-4.258l0,0.029c-14.291,-11.062 -32.212,-17.662 -51.683,-17.662c-46.688,-0 -84.538,37.85 -84.538,84.537c0,46.688 37.85,84.538 84.538,84.538c21.037,-0 40.267,-7.705 55.062,-20.421c0,-0 16.05,-11.788 36.921,-5.879l0,214.879l220.992,-0l0.391,-1.113c7.438,-21.937 -5.249,-39.121 -5.249,-39.121c-12.717,-14.791 -20.421,-34.02 -20.421,-55.058c-0,-46.687 37.85,-84.537 84.537,-84.537c46.688,-0 84.538,37.85 84.538,84.537c-0,19.471 -6.6,37.392 -17.663,51.679l0.029,0c-7.079,16.813 -5.891,32.95 -3.633,43.613l216.983,-0l0,-209c0,-0 -7.991,-3.284 -13.795,-5.25c-21.934,-7.438 -39.117,5.25 -39.117,5.25c-14.8,12.716 -34.025,20.421 -55.058,20.421c-46.692,-0 -84.538,-37.85 -84.538,-84.538c0,-46.687 37.846,-84.537 84.538,-84.537c19.47,-0 37.387,6.6 51.679,17.662l-0,-0.029c29.096,12.254 56.291,-0.233 56.291,-0.233Z" style="fill:#1a8b8c;fill-rule:nonzero;"/><path d="M984.563,418.564l-0,-220.251l-217.217,0c-2.1,-10.654 -2.963,-26.275 3.866,-42.499l-0.025,0.004c11.059,-14.292 17.659,-32.213 17.659,-51.684c-0,-46.687 -37.846,-84.533 -84.534,-84.533c-46.687,0 -84.537,37.846 -84.537,84.533c0,21.038 7.704,40.267 20.421,55.059c-0,-0 12.683,17.183 5.246,39.12l-221.384,0l0,224.742c-10.545,1.779 -25.145,2.121 -40.304,-4.258l0,0.029c-14.287,-11.062 -32.204,-17.662 -51.675,-17.662c-46.691,-0 -84.541,37.85 -84.541,84.537c-0,46.688 37.85,84.538 84.541,84.538c21.038,-0 40.263,-7.705 55.059,-20.421c-0,-0 16.05,-11.788 36.92,-5.879l0,214.879l220.996,-0l0.388,-1.113c7.437,-21.937 -5.246,-39.121 -5.246,-39.121c-12.717,-14.791 -20.421,-34.02 -20.421,-55.058c0,-46.687 37.85,-84.537 84.537,-84.537c46.688,-0 84.534,37.85 84.534,84.537c-0,19.471 -6.6,37.392 -17.659,51.679l0.025,0c-7.075,16.813 -5.891,32.95 -3.633,43.613l216.984,-0l-0,-209c-0,-0 -7.992,-3.284 -13.792,-5.25c-21.942,-7.438 -39.121,5.25 -39.121,5.25c-14.796,12.716 -34.021,20.421 -55.058,20.421c-46.692,-0 -84.538,-37.85 -84.538,-84.538c0,-46.687 37.846,-84.537 84.538,-84.537c19.466,-0 37.387,6.6 51.683,17.662l0,-0.029c29.092,12.254 56.288,-0.233 56.288,-0.233Z" style="fill:#1d9fad;fill-rule:nonzero;"/><path d="M101.971,422.343c-0,-0 45.579,144.954 99.233,205.487c53.65,60.529 222.025,16.804 222.025,16.804l-4.558,-44.775l-168.417,-38.866l-81.896,-145.009c0,0 10.859,-76.35 -35.55,-60.137c-46.412,16.212 -30.837,66.496 -30.837,66.496Z" style="fill:#454d6d;fill-rule:nonzero;"/><path d="M418.671,599.859c2.771,-0.708 5.387,-7.579 5.387,-7.579c0,0 -0.316,3.659 0.434,5.463c2.262,5.416 44.395,5 48.575,4.141c10.566,-2.112 13.808,-1.129 14.55,0.363c0.741,1.492 1.879,4.446 -5.175,6.462c-6.996,2.071 -29.55,4.03 -29.55,4.03c-0,-0 39.771,-0.055 41.387,5.295c1.217,4.338 -3.437,4.542 -8.683,4.6c-5.158,0.146 -25.867,0.184 -29.846,0.25c-4.108,0.105 -0.575,3.93 13.008,4.546c5.792,0.259 14.771,0.313 14.771,0.313c0,-0 7.288,1.841 1.8,5.221c-5.462,3.283 -21.437,4.466 -31.791,4.07c-7.275,-0.279 -8.713,2.621 2.112,3.059c9.738,0.329 11.096,0.4 13.946,1.087c8.171,1.967 4.479,5.471 0.254,5.834c-17.337,1.491 -31.317,0.616 -46.621,-2.38" style="fill:#fbb67c;fill-rule:nonzero;"/><path d="M562.621,195.151c3.071,14.496 0.879,28.925 -0.45,32.879c-1.304,4 -2.25,6.938 -4.734,-1.017c-0.954,-2.854 -1.345,-5.337 -1.387,-15c-0.117,-10.737 -4.308,-10.37 -3.433,-3.204c1.22,9.667 -0.367,28.238 -3.779,33.559c-3.517,5.341 -5.121,-1.934 -5.121,-1.934c-0,0 -0.196,-8.916 0.121,-14.654c0.208,-5.604 -3.901,-17.091 -4.121,-13.021c-0.184,3.942 -0.829,24.463 -1.125,29.571c-0.213,5.192 -0.55,9.8 -4.813,8.467c-5.254,-1.763 -4.033,-41.167 -4.033,-41.167c-0,0 -4.525,25.684 -6.783,32.55c-2.205,6.934 -5.096,5.721 -6.555,4.942c-1.458,-0.779 -2.337,-4.021 0.067,-14.434c0.975,-4.112 4.079,-27.004 -1.221,-29.408c-1.762,-0.796 -3.237,3.613 -3.237,3.613c-0,-0 -2.263,6.808 -4.713,14.229c-2.4,7.408 -6.975,5.3 -6.375,-6.208c0.338,-6.705 4.846,-16.342 8.542,-24.463c3.516,-7.717 12.937,-14.483 21.404,-14.046c13.4,0.688 28.533,3.579 31.746,18.746Z" style="fill:#fbb67c;fill-rule:nonzero;"/><path d="M1428.55,57.826c-0,0 21.746,-74.204 123.708,-54.496c34.196,3.846 80.892,35.817 103.729,80.517c35.313,69.121 163.054,104.746 166.384,215.35c3.991,132.529 -148.217,245.558 -327.213,172.066c-138.562,-56.887 -66.608,-413.437 -66.608,-413.437Z" style="fill:#d1534f;fill-rule:nonzero;"/><path d="M1462.41,620.63c0,0 79.592,153.688 -88.366,426.213c-0,-0 57.275,239.9 45.858,321.925l-41.016,-5.709c-0,0 -125.959,-331.575 -132.784,-368.362c-6.825,-36.784 11.663,-212.088 67.079,-343.821l149.229,-30.246Z" style="fill:#355d5f;fill-rule:nonzero;"/><path d="M1377.32,1357.81c-0,0 -27.825,32.334 -54.967,34.955c-13.187,10.291 72.667,14.908 95.021,2.758c12.829,-7.358 1.042,-32.65 1.042,-32.65l-41.096,-5.063Z" style="fill:#2c2b2f;fill-rule:nonzero;"/><path d="M1594.22,742.959c1.804,105.013 -140.805,202.95 -123.375,252.713c69.304,197.858 85.283,319.092 71.108,375.054l-49.896,-2.396c0,0 -173.846,-341.2 -176.596,-378.512c-2.754,-37.313 49.98,-266.992 148.55,-345.279c0,-0 128.646,7.741 130.209,98.42Z" style="fill:#355d5f;fill-rule:nonzero;"/><path d="M1495.79,1367.71c-0,-0 -26.117,33.729 -53.088,37.745c-12.642,10.959 73.338,11.134 95.033,-2.15c12.434,-8.012 -0.641,-32.662 -0.641,-32.662l-41.304,-2.933Z" style="fill:#2c2b2f;fill-rule:nonzero;"/><path d="M1584.64,245.109c-11.642,-8 -42.059,-5.9 -63.046,1.53c-24.242,4.216 -76.508,5.52 -104.179,2.958c-23.467,7.641 -25.954,87.2 -25.954,87.2l18.408,6.837c-6.771,5.825 -8.604,8.75 -11.496,10.83c-35.967,25.833 -18.329,60.683 -9.596,83.604c8.734,22.916 -43.671,144.058 -77.929,211.508c-7.642,10.371 86.925,149.758 291.204,81.608c4.909,-76.396 -18.592,-256.091 7.471,-307.537c29.263,-57.758 37.213,-135.875 -24.883,-178.538Z" style="fill:#1d9fad;fill-rule:nonzero;"/><path d="M1451.24,77.772c-1.729,-6.067 -25.158,32.367 -24.97,86.375c0.529,14.029 5.633,36.229 14.816,46.887c14.492,16.821 33.496,25.88 52.067,31.767c5.8,1.842 6.05,20.433 11.442,21.338c31.833,5.32 59.458,-24.23 59.458,-24.23c0,0 -9.304,-11.854 -10.212,-18.85c18.05,-16.95 -97.996,-127.15 -102.601,-143.287Z" style="fill:#fbb67c;fill-rule:nonzero;"/><path d="M1493.15,242.801c3.95,-0.879 37.908,-9.654 48.958,-18.3c0,0 0.542,8.467 -45.1,23.371c-0.85,-2.1 -0.875,-3.7 -3.858,-5.071Z" style="fill:#eba674;fill-rule:nonzero;"/><path d="M1452.67,61.193c-0,-0 -15.542,20.845 -26.579,56.054c-12.192,38.875 -0.171,107.208 54.666,117.642c54.834,10.433 83.763,-16.546 99.567,-43.034c0,0 19.1,-0.454 20.563,-20.891c0.479,-6.651 0.15,-12.475 -5.534,-15.446c0,-0 24.046,-55.234 13.838,-74.917c-10.217,-19.683 -98.117,-79.467 -156.521,-19.408Z" style="fill:#fbb67c;fill-rule:nonzero;"/><path d="M1552.95,11.497c14.242,4.925 46.425,12.858 61.475,53.05c14.75,39.392 5.946,102.191 -1.15,98.267c-17.758,-9.825 -28.137,-10.009 -32.55,-2.83c-4.421,7.18 -13.583,-18.05 -41.883,-26.879c-46.95,-14.646 -82.917,-41.621 -96.146,-49.258c-24.975,45.096 -21.159,62.879 -20.871,68.096c0.287,5.216 -10.508,-22.279 -7.271,-48.475c3.583,-29.005 20.142,-74.988 54.838,-90.321c37.079,-16.383 83.558,-1.65 83.558,-1.65Z" style="fill:#d1534f;fill-rule:nonzero;"/><path d="M1488.26,172.818c-0.504,1.483 -4.979,2.416 -9.925,0.771c-4.462,-1.484 -7.646,-5.075 -6.179,-7.392c0.6,-0.958 9.234,-18.117 12.829,-25.275c0.425,-0.842 1.68,-0.571 1.725,0.366l1.55,31.53Z" style="fill:#f4815f;fill-rule:nonzero;"/><path d="M1445.76,137.722c0.076,3.116 1.951,5.6 4.192,5.55c2.238,-0.054 4,-2.621 3.925,-5.738c-0.071,-3.112 -1.95,-5.6 -4.191,-5.546c-2.238,0.05 -3.996,2.621 -3.926,5.734Z" style="fill:#3c3c3a;fill-rule:nonzero;"/><path d="M1515.78,147.497c-0.054,3.112 1.721,5.671 3.962,5.708c2.242,0.038 4.101,-2.458 4.155,-5.575c0.054,-3.112 -1.721,-5.671 -3.963,-5.708c-2.242,-0.038 -4.104,2.458 -4.154,5.575Z" style="fill:#3c3c3a;fill-rule:nonzero;"/><path d="M1483.78,200.264c-24.833,1.608 -21.808,-18.892 -21.096,-19.784c0.7,-0.896 2.004,-1.058 2.904,-0.342c10.571,8.376 30.95,2.284 31.446,1.926c0.908,-0.675 2.221,-0.463 2.888,0.466c0.666,0.925 -0.35,16.059 -16.142,17.734Z" style="fill:#fff;fill-rule:nonzero;"/><path d="M1529.09,169.964c-0.176,-0 -0.351,-0.005 -0.53,-0.013c-5.433,-0.2 -9.721,-3.483 -9.579,-7.329c0.138,-3.721 4.379,-6.608 9.571,-6.608c0.175,-0 0.354,0.004 0.529,0.012c5.434,0.204 9.721,3.483 9.579,7.329c-0.137,3.721 -4.375,6.609 -9.57,6.609Z" style="fill:#f8a072;fill-rule:nonzero;"/><path d="M1435.78,157.068c-0.175,-0 -0.35,-0.004 -0.525,-0.013c-5.433,-0.2 -9.721,-3.483 -9.579,-7.329c0.137,-3.721 4.371,-6.608 9.571,-6.608c0.175,-0 0.35,0.004 0.525,0.012c5.433,0.2 9.725,3.484 9.579,7.329c-0.138,3.721 -4.375,6.609 -9.571,6.609Z" style="fill:#f8a072;fill-rule:nonzero;"/><path d="M1611.09,341.776c-0,-0 1.908,37.617 -16.338,60.917c-11.683,14.916 -16.812,22.583 -16.812,22.583l-17.246,-13.85l6.212,-7.008l8.663,7.662c-0,0 38.641,-45.879 35.521,-70.304Z" style="fill:#1a949a;fill-rule:nonzero;"/><path d="M1369.33,754.384c0,0 -49.004,116.696 -58.954,179.913c-5.154,32.712 93.392,256.671 93.392,256.671c-0,-0 -103.521,-194.104 -103.696,-233.263c-0.083,-19.291 9.541,-82.858 21.579,-113.954c10.942,-28.246 47.679,-89.367 47.679,-89.367Z" style="fill:#294f4f;fill-rule:nonzero;"/><path d="M1662.98,401.164c-19.47,-0 -37.391,6.6 -51.683,17.662l-0,-0.029c-14.167,5.967 -27.858,6.054 -38.2,4.583l-0,-225.067l-222.471,0c-2.1,-10.654 -2.962,-26.275 3.871,-42.499l-0.029,0.004c11.058,-14.292 17.658,-32.213 17.658,-51.684c0,-46.687 -37.846,-84.533 -84.533,-84.533c-46.688,0 -84.538,37.846 -84.538,84.533c0,21.038 7.705,40.267 20.417,55.059c-0,-0 12.688,17.183 5.254,39.12l-216.137,0l-0,225.313c-10.092,1.188 -22.963,0.775 -36.267,-4.829l0,0.029c-14.292,-11.062 -32.213,-17.662 -51.679,-17.662c-46.692,-0 -84.538,37.85 -84.538,84.537c0,46.688 37.846,84.538 84.538,84.538c21.033,-0 40.267,-7.705 55.054,-20.421c0,-0 14.025,-10.292 32.892,-6.829l-0,215.829l220.995,-0l0.392,-1.113c7.438,-21.937 -5.25,-39.121 -5.25,-39.121c-12.721,-14.791 -20.421,-34.02 -20.421,-55.058c0,-46.687 37.85,-84.537 84.538,-84.537c46.687,-0 84.537,37.85 84.537,84.537c0,19.471 -6.6,37.392 -17.662,51.679l0.025,0c-7.075,16.813 -5.892,32.95 -3.633,43.613l216.987,-0l-0,-215.463c19.842,-4.583 34.825,6.463 34.825,6.463c14.796,12.716 34.021,20.421 55.058,20.421c46.692,-0 84.538,-37.85 84.538,-84.538c-0,-46.687 -37.846,-84.537 -84.538,-84.537Z" style="fill:#dc832d;fill-rule:nonzero;"/><path d="M1649.44,401.164c-19.471,-0 -37.392,6.6 -51.684,17.662l0,-0.029c-14.166,5.967 -27.858,6.054 -38.2,4.583l0,-225.067l-222.471,0c-2.1,-10.654 -2.962,-26.275 3.871,-42.499l-0.029,0.004c11.059,-14.292 17.658,-32.213 17.658,-51.684c0,-46.687 -37.845,-84.533 -84.533,-84.533c-46.687,0 -84.537,37.846 -84.537,84.533c-0,21.038 7.704,40.267 20.416,55.059c0,-0 12.688,17.183 5.255,39.12l-216.138,0l-0,225.313c-10.092,1.188 -22.962,0.775 -36.267,-4.829l0,0.029c-14.291,-11.062 -32.212,-17.662 -51.679,-17.662c-46.691,-0 -84.537,37.85 -84.537,84.537c-0,46.688 37.846,84.538 84.537,84.538c21.034,-0 40.267,-7.705 55.054,-20.421c0,-0 14.025,-10.292 32.892,-6.829l-0,215.829l220.996,-0l0.391,-1.113c7.438,-21.937 -5.249,-39.121 -5.249,-39.121c-12.721,-14.791 -20.421,-34.02 -20.421,-55.058c-0,-46.687 37.85,-84.537 84.537,-84.537c46.688,-0 84.538,37.85 84.538,84.537c-0,19.471 -6.6,37.392 -17.663,51.679l0.025,0c-7.075,16.813 -5.891,32.95 -3.633,43.613l216.987,-0l0,-215.463c19.842,-4.583 34.825,6.463 34.825,6.463c14.796,12.716 34.021,20.421 55.059,20.421c46.691,-0 84.537,-37.85 84.537,-84.538c0,-46.687 -37.846,-84.537 -84.537,-84.537Z" style="fill:#f99e42;fill-rule:nonzero;"/><path d="M1576.5,326.488c-13.954,-2.929 -28.466,1.455 -38.987,11.076c-26.742,24.454 -97.896,80.045 -153.534,88.254c-49.925,7.358 -148.454,-27.346 -148.454,-27.346l-16.512,-8.929c-7.479,-5.821 -49.938,-38.613 -61.288,-44.805c-12.271,-6.712 -16.987,-2.82 -10.15,3.709c6.829,6.587 13.084,12.65 13.084,12.65c-0,-0 4.045,3.933 2.245,5.437c-5.421,4.538 -28.825,-10.912 -32.812,-14.146c-10.121,-8.112 -14.125,-8.858 -15.746,-7.674c-1.625,1.187 -4.471,3.712 1.95,9.77c6.325,6.092 32.033,24.559 32.033,24.559c0,-0 -42.458,-22.084 -47.154,-17.259c-3.7,3.959 1.163,6.75 6.734,9.721c5.429,3.008 27.533,14.521 31.75,16.796c4.333,2.383 -10.396,0.833 -16.413,-2.35c-6.113,-3.362 -15.962,-7.842 -15.962,-7.842c-0,0 -8.805,-2.075 -4.813,4.579c4.021,6.534 23.5,18.055 34.713,21.809c8.304,2.808 6.495,7.587 -5.313,2.067c-10.587,-5.042 -13.512,-5.921 -17.137,-6.388c-10.009,-1.467 -7.288,1.117 -3.605,4.646c3.629,3.537 32.196,16.637 49.192,22.517c15.654,5.416 33.458,14.887 39.496,15.85l0.004,-0.017c60.412,30.433 223.375,89.037 350.354,-22.942c70.771,-62.417 48.088,-89.171 26.325,-93.742Z" style="fill:#fbb67c;fill-rule:nonzero;"/><path d="M1505.7,350.255l69.867,61.825c-0,0 46.3,-69.15 32.879,-90.216c-13.425,-21.067 -22.467,-41.867 -50.154,-26.746c-7.88,4.3 -52.592,55.137 -52.592,55.137Z" style="fill:#1d9fad;fill-rule:nonzero;"/><path d="M1139.18,202.097c-3.729,17.6 -1.071,35.116 0.546,39.917c1.583,4.85 2.729,8.416 5.746,-1.234c1.154,-3.466 1.629,-6.483 1.683,-18.212c0.142,-13.034 5.233,-12.588 4.167,-3.892c-1.484,11.733 0.446,34.279 4.591,40.737c4.263,6.484 6.217,-2.349 6.217,-2.349c0,-0 0.229,-10.817 -0.146,-17.784c-0.258,-6.804 4.73,-20.746 5,-15.808c0.217,4.783 1.009,29.696 1.367,35.896c0.254,6.304 0.667,11.895 5.838,10.283c6.379,-2.138 4.9,-49.979 4.9,-49.979c-0,-0 5.487,31.179 8.233,39.517c2.671,8.412 6.187,6.945 7.958,5.995c1.771,-0.945 2.829,-4.879 -0.083,-17.516c-1.183,-4.996 -4.954,-32.788 1.483,-35.7c2.133,-0.971 3.925,4.383 3.925,4.383c0,0 2.746,8.263 5.725,17.275c2.913,8.992 8.463,6.429 7.742,-7.537c-0.417,-8.142 -5.888,-19.842 -10.375,-29.696c-4.263,-9.367 -15.7,-17.579 -25.979,-17.054c-16.267,0.841 -34.642,4.345 -38.538,22.758Z" style="fill:#fbb67c;fill-rule:nonzero;"/></svg>